<?xml version="1.0" encoding="UTF-8"?>
<svg width="1440px" height="1983px" viewBox="0 0 1440 1983" version="1.1" xmlns="http://www.w3.org/2000/svg" xmlns:xlink="http://www.w3.org/1999/xlink">
    <!-- Generator: Sketch 52.5 (67469) - http://www.bohemiancoding.com/sketch -->
    <title>Group 9</title>
    <desc>Created with Sketch.</desc>
    <defs>
        <linearGradient x1="86.9596795%" y1="176.929469%" x2="24.5203785%" y2="-11.8175322%" id="linearGradient-1">
            <stop stop-color="#FFFFFF" offset="0%"></stop>
            <stop stop-color="#A8A8A8" offset="100%"></stop>
        </linearGradient>
        <linearGradient x1="86.9596795%" y1="176.929469%" x2="-14.3940403%" y2="30.3454698%" id="linearGradient-2">
            <stop stop-color="#FFFFFF" offset="0%"></stop>
            <stop stop-color="#A8A8A8" offset="100%"></stop>
        </linearGradient>
    </defs>
    <g id="Page-1" stroke="none" stroke-width="1" fill="none" fill-rule="evenodd">
        <g id="Product-Copy" transform="translate(0.000000, -4366.000000)">
            <g id="Group-9" transform="translate(827.000000, 5207.500000) scale(-1, 1) translate(-827.000000, -5207.500000) translate(-424.000000, 4066.000000)">
                <polygon id="Fill-1" fill="#FF6A5F" points="420.863799 2076.09371 417 2072.21346 2429.13675 51.2243731 2433 55.1046212"></polygon>
                <polygon id="Fill-2" fill="#9DD1F1" points="447.86343 2085.1333 444 2081.25094 2446.13602 69.3035636 2450 73.1859254"></polygon>
                <polygon id="Fill-3" fill="#EDD45A" points="542.863919 2022.86054 539 2018.98017 2463.13663 86.3783546 2467 90.2587229"></polygon>
                <polygon id="Fill-4" fill="url(#linearGradient-1)" points="2377.13544 0 1728.9827 651.385415 38 651.385415 38 656.877255 1731.24614 656.877255 2381 3.88327959"></polygon>
                <polygon id="Fill-5" fill="url(#linearGradient-1)" points="1567.06992 856.75275 22 856.75275 22 851.263076 1564.80606 851.263076 2395.13675 17.074791 2399 20.9565392"></polygon>
                <polygon id="Fill-6" fill="url(#linearGradient-1)" points="1401.83651 1046.11577 0 1046.11577 0 1051.60625 1404.1005 1051.60625 2414 37.0271121 2410.13598 33.1451826"></polygon>
                <polygon id="Fill-7" fill="url(#linearGradient-1)" points="1707 914.940011 1707 2213.69644 1712.46609 2213.69644 1712.46609 917.212893 2502 124.409016 2498.13493 120.527937"></polygon>
                <polygon id="Fill-8" fill="url(#linearGradient-2)" points="1596 992.419968 1596 2283 1601.46512 2283 1601.46512 994.693192 2485 107.333872 2481.136 103.453146"></polygon>
            </g>
        </g>
    </g>
</svg>