<?xml version="1.0" encoding="UTF-8"?>
<svg width="1440px" height="2002px" viewBox="0 0 1440 2002" version="1.1" xmlns="http://www.w3.org/2000/svg" xmlns:xlink="http://www.w3.org/1999/xlink">
    <!-- Generator: Sketch 52.5 (67469) - http://www.bohemiancoding.com/sketch -->
    <title>Group 9</title>
    <desc>Created with Sketch.</desc>
    <defs>
        <linearGradient x1="86.9596795%" y1="176.929469%" x2="24.5203785%" y2="-11.8175322%" id="linearGradient-1">
            <stop stop-color="#FFFFFF" offset="0%"></stop>
            <stop stop-color="#A8A8A8" offset="100%"></stop>
        </linearGradient>
        <linearGradient x1="86.9596795%" y1="176.929469%" x2="-14.3940403%" y2="30.3454698%" id="linearGradient-2">
            <stop stop-color="#FFFFFF" offset="0%"></stop>
            <stop stop-color="#A8A8A8" offset="100%"></stop>
        </linearGradient>
    </defs>
    <g id="Page-1" stroke="none" stroke-width="1" fill="none" fill-rule="evenodd">
        <g id="Product-Copy" transform="translate(0.000000, -1345.000000)">
            <g id="Group-9" transform="translate(-666.000000, 1074.000000)">
                <polygon id="Fill-1" fill="#FF6A5F" points="420.863799 2067 417 2063.13675 2429.13675 51 2433 54.8632518"></polygon>
                <polygon id="Fill-2" fill="#9DD1F1" points="447.86343 2076 444 2072.13464 2446.13602 69 2450 72.8653563"></polygon>
                <polygon id="Fill-3" fill="#EDD45A" points="542.863919 2014 539 2010.13663 2463.13663 86 2467 89.8633716"></polygon>
                <polygon id="Fill-4" fill="url(#linearGradient-1)" points="2377.13544 0 1728.9827 648.532216 38 648.532216 38 654 1731.24614 654 2381 3.86627004"></polygon>
                <polygon id="Fill-5" fill="url(#linearGradient-1)" points="1567.06992 853 22 853 22 847.534372 1564.80606 847.534372 2395.13675 17 2399 20.8647453"></polygon>
                <polygon id="Fill-6" fill="url(#linearGradient-1)" points="1401.83651 1041.53357 0 1041.53357 0 1047 1404.1005 1047 2414 36.8649258 2410.13598 33"></polygon>
                <polygon id="Fill-7" fill="url(#linearGradient-1)" points="1707 910.932389 1707 2204 1712.46609 2204 1712.46609 913.195316 2502 123.864079 2498.13493 120"></polygon>
                <polygon id="Fill-8" fill="url(#linearGradient-2)" points="1596 988.072968 1596 2273 1601.46512 2273 1601.46512 990.336235 2485 106.863728 2481.136 103"></polygon>
            </g>
        </g>
    </g>
</svg>