<?xml version="1.0" encoding="utf-8"?>
<!-- Generator: Adobe Illustrator 22.1.0, SVG Export Plug-In . SVG Version: 6.00 Build 0)  -->
<svg version="1.1" id="Layer_1" xmlns="http://www.w3.org/2000/svg" xmlns:xlink="http://www.w3.org/1999/xlink" x="0px" y="0px"
	 viewBox="0 0 1348.6 105.8" style="enable-background:new 0 0 1348.6 105.8;" xml:space="preserve">
<style type="text/css">
	.st0{fill:#282828;}
</style>
<g>
	<path class="st0" d="M731.9,89.5c-2.5,1.9-5.3,3.6-8.1,5c-2.9,1.4-6,2.5-9.4,3.2c-3.4,0.8-7,1.2-11,1.2c-6.5,0-12.5-1.2-18-3.6
		s-10.3-5.7-14.3-9.9c-4-4.2-7.1-9.1-9.4-14.8c-2.2-5.7-3.4-11.8-3.4-18.2v-0.3c0-6.4,1.1-12.4,3.4-18.1c2.3-5.7,5.4-10.7,9.4-14.9
		c4-4.3,8.8-7.6,14.3-10.1s11.5-3.7,18.1-3.7c4.1,0,7.7,0.3,11,1s6.3,1.7,9.1,3s5.4,2.8,7.9,4.6s4.8,3.7,7.2,5.9l-4.8,4.9
		c-2-1.9-4.1-3.7-6.2-5.3c-2.2-1.6-4.5-3-6.9-4.2c-2.5-1.2-5.1-2.1-8-2.8c-2.9-0.7-6-1-9.4-1c-5.4,0-10.5,1-15.1,3.1
		c-4.7,2.1-8.7,4.9-12.1,8.6c-3.4,3.7-6.1,7.9-8,12.9c-1.9,4.9-2.9,10.2-2.9,15.9v0.3c0,5.7,1,11,3,16s4.7,9.3,8.1,12.9
		c3.4,3.7,7.4,6.6,12.1,8.7c4.7,2.1,9.7,3.2,15.1,3.2c6.5,0,12.2-1.2,17.1-3.6c4.8-2.4,9.5-5.9,14.1-10.5l4.5,4.4
		C736.9,85.4,734.4,87.5,731.9,89.5z"/>
	<path class="st0" d="M834.3,76c-1.8,5-4.4,9.1-7.6,12.5c-3.3,3.4-7.2,5.9-11.7,7.6s-9.5,2.6-15.1,2.6c-5.4,0-10.4-0.8-14.9-2.5
		s-8.4-4.2-11.8-7.5c-3.3-3.3-5.9-7.4-7.7-12.2c-1.8-4.8-2.7-10.4-2.7-16.8V6.8h6.7V59c0,10.8,2.7,19.1,8.1,24.9
		c5.4,5.8,12.9,8.7,22.6,8.7c4.6,0,8.7-0.7,12.4-2.1s6.9-3.4,9.5-6.2c2.6-2.8,4.7-6.2,6.1-10.3c1.4-4.1,2.1-8.9,2.1-14.3V6.8h6.7
		v52.1C837.1,65.4,836.2,71.1,834.3,76z"/>
	<path class="st0" d="M927.4,83.9c-1.5,3.1-3.6,5.7-6.2,7.8c-2.6,2.2-5.8,3.8-9.4,5c-3.7,1.2-7.7,1.8-12.1,1.8
		c-7.2,0-13.8-1.2-19.6-3.6s-11.4-6-16.9-10.9l4.4-5c2.5,2.3,5,4.3,7.4,6c2.5,1.7,5,3.1,7.6,4.1c2.6,1.1,5.3,1.9,8.1,2.5
		s5.9,0.8,9.3,0.8c3.4,0,6.5-0.5,9.3-1.4s5.3-2.2,7.2-3.7c2-1.6,3.5-3.5,4.7-5.7c1.1-2.2,1.7-4.6,1.7-7.2v-0.3
		c0-2.4-0.4-4.6-1.1-6.5c-0.7-1.9-2.1-3.6-4-5.2c-1.9-1.6-4.5-3-7.8-4.2s-7.5-2.4-12.7-3.4c-5.4-1.1-10.1-2.4-14-3.9s-7-3.3-9.5-5.3
		s-4.2-4.4-5.4-7c-1.1-2.7-1.7-5.7-1.7-9.2v-0.3c0-3.4,0.7-6.5,2.2-9.4s3.5-5.4,6.1-7.6s5.6-3.8,9.2-5c3.5-1.2,7.4-1.8,11.6-1.8
		c6.5,0,12.2,0.9,17,2.7s9.5,4.6,14,8.3l-4.3,5.3c-4.3-3.7-8.6-6.3-13-7.9s-9-2.3-14-2.3c-3.4,0-6.4,0.5-9.1,1.4
		c-2.7,0.9-5,2.1-7,3.7c-1.9,1.6-3.4,3.4-4.5,5.4c-1,2.1-1.6,4.3-1.6,6.6v0.3c0,2.4,0.4,4.6,1.1,6.5c0.7,1.9,2.1,3.7,4,5.3
		s4.6,3,8.1,4.3c3.4,1.3,7.8,2.5,13.2,3.6c10.5,2.2,18.1,5.2,22.8,9.1s7,9.2,7,15.8v0.3C929.6,77.5,928.9,80.9,927.4,83.9z"/>
	<path class="st0" d="M988,12.9v84.4h-6.7V12.9h-31.5V6.8h69.8v6.1H988z"/>
	<path class="st0" d="M1123.1,69.8c-2.2,5.6-5.3,10.6-9.2,14.9c-4,4.3-8.8,7.7-14.4,10.3c-5.6,2.5-11.9,3.8-18.7,3.8
		c-6.9,0-13.1-1.3-18.7-3.8s-10.3-5.9-14.3-10.2c-4-4.3-7-9.2-9.2-14.8c-2.2-5.6-3.2-11.5-3.2-17.7V52c0-6.2,1.1-12.1,3.3-17.8
		c2.2-5.6,5.3-10.6,9.2-14.9c4-4.3,8.7-7.7,14.3-10.3c5.6-2.5,11.8-3.8,18.7-3.8c6.8,0,13,1.3,18.6,3.8s10.4,5.9,14.3,10.2
		c4,4.3,7,9.2,9.2,14.8s3.2,11.5,3.2,17.7c0.1,0.1,0.1,0.2,0,0.3C1126.4,58.3,1125.3,64.2,1123.1,69.8z M1119.4,52.1
		c0-5.6-1-10.9-2.9-15.8c-1.9-5-4.6-9.3-8-12.9c-3.4-3.7-7.5-6.6-12.2-8.7c-4.7-2.2-9.9-3.2-15.5-3.2s-10.8,1.1-15.4,3.2
		c-4.7,2.1-8.7,5-12.2,8.7c-3.4,3.7-6.1,8-8,12.9s-2.8,10.2-2.8,15.8v0.3c0,5.6,1,10.9,2.9,15.8c1.9,5,4.6,9.3,8,12.9
		c3.4,3.7,7.5,6.6,12.2,8.7c4.7,2.2,9.9,3.2,15.5,3.2s10.7-1.1,15.4-3.2c4.7-2.1,8.7-5,12.2-8.7c3.4-3.7,6.1-8,8-12.9
		s2.8-10.2,2.8-15.8V52.1z"/>
	<path class="st0" d="M1230.4,69.9c-2.3,5.5-5.6,10.3-9.9,14.3c-4.3,4.1-9.4,7.2-15.3,9.6c-5.9,2.3-12.4,3.5-19.5,3.5h-30.1V6.8
		h30.1c7.1,0,13.6,1.1,19.5,3.4s11,5.5,15.3,9.5c4.3,4.1,7.6,8.8,9.9,14.3s3.5,11.4,3.5,17.8v0.3
		C1233.9,58.4,1232.8,64.4,1230.4,69.9z M1226.9,52.1c0-5.4-1-10.4-2.9-15.2s-4.7-8.9-8.2-12.5c-3.5-3.5-7.8-6.4-12.9-8.4
		c-5.1-2.1-10.8-3.1-17.1-3.1h-23.4v78.3h23.4c6.3,0,12-1,17.1-3s9.4-4.8,12.9-8.3s6.3-7.6,8.2-12.3c1.9-4.7,2.9-9.8,2.9-15.2V52.1z
		"/>
	<path class="st0" d="M1291.1,61.4v35.9h-6.7V61.5l-38.8-54.7h8.4l33.9,48.6l34-48.6h8L1291.1,61.4z"/>
	<g>
		<path class="st0" d="M229.6,99.6l-8.5-20.8h-39.2l-8.5,20.8h-20.8l39.8-93.4h18.8L251,99.6H229.6z M201.5,30.7l-12.3,30.1h24.6
			L201.5,30.7z"/>
		<path class="st0" d="M445.2,96.9c-6.6,2.9-14.1,4.3-22.6,4.3c-7.2,0-13.8-1.2-19.8-3.6s-11.1-5.7-15.4-9.9
			c-4.3-4.2-7.6-9.3-10-15.1c-2.4-5.8-3.6-12.2-3.6-19.1v-0.3c0-6.6,1.2-12.8,3.6-18.6s5.8-10.9,10.1-15.2C391.9,15,397,11.5,403,9
			c5.9-2.5,12.4-3.8,19.5-3.8c4.2,0,7.9,0.3,11.3,0.9s6.6,1.4,9.5,2.5s5.7,2.4,8.2,4c2.6,1.6,5,3.4,7.4,5.4L446,33.5
			c-1.8-1.5-3.5-2.8-5.3-4c-1.8-1.1-3.6-2.1-5.5-2.9s-4-1.4-6.2-1.9c-2.2-0.4-4.6-0.7-7.3-0.7c-3.7,0-7.2,0.8-10.4,2.3
			c-3.2,1.5-6.1,3.6-8.5,6.2s-4.3,5.7-5.7,9.2c-1.4,3.5-2.1,7.2-2.1,11.2v0.3c0,4.3,0.7,8.2,2.1,11.8s3.3,6.7,5.8,9.4
			c2.5,2.7,5.5,4.7,8.9,6.2s7.2,2.2,11.3,2.2c7.6,0,14-1.9,19.2-5.6V63.8h-20.5V46.2h40.3v40.3C457.4,90.5,451.7,94,445.2,96.9z"/>
		<path class="st0" d="M494.7,99.6V6.8h20.4v92.8C515.1,99.6,494.7,99.6,494.7,99.6z"/>
		<path class="st0" d="M614.7,84.4c-1.7,3.6-4,6.6-7,9s-6.5,4.3-10.7,5.6c-4.1,1.3-8.7,1.9-13.8,1.9c-7.1,0-14-1.2-20.8-3.6
			s-13-6.2-18.6-11.2L556,71.6c4.2,3.4,8.6,6.2,13.1,8.2s9.3,3,14.6,3c4.2,0,7.5-0.8,9.9-2.3c2.3-1.5,3.5-3.7,3.5-6.4v-0.3
			c0-1.3-0.2-2.5-0.7-3.5s-1.4-2-2.8-2.8c-1.4-0.9-3.3-1.8-5.7-2.7c-2.4-0.9-5.6-1.8-9.5-2.8c-4.7-1.1-8.9-2.4-12.8-3.8
			c-3.8-1.4-7-3.2-9.7-5.2c-2.7-2.1-4.7-4.7-6.2-7.8s-2.2-6.9-2.2-11.5v-0.3c0-4.2,0.8-8.1,2.4-11.5c1.6-3.4,3.8-6.3,6.6-8.8
			c2.9-2.5,6.3-4.4,10.2-5.7c4-1.3,8.3-2,13.1-2c6.8,0,13.1,1,18.8,3s10.9,4.9,15.7,8.7l-10.6,15.4c-4.2-2.8-8.2-5.1-12.2-6.7
			s-8-2.5-11.9-2.5c-4,0-7,0.8-8.9,2.3c-2,1.5-3,3.5-3,5.8v0.3c0,1.5,0.3,2.8,0.9,3.9c0.6,1.1,1.6,2.1,3.1,3s3.6,1.7,6.2,2.5
			c2.6,0.8,5.9,1.7,9.9,2.8c4.7,1.2,8.9,2.6,12.6,4.2c3.7,1.5,6.8,3.4,9.3,5.6c2.5,2.2,4.4,4.7,5.7,7.6c1.3,2.9,1.9,6.4,1.9,10.5
			v0.3C617.2,76.8,616.4,80.9,614.7,84.4z"/>
	</g>
	<g>
		<polygon class="st0" points="312.5,25 347.7,25 347.7,6.8 277.2,6.8 277.2,25 297.3,25 		"/>
		<polygon class="st0" points="277.2,43.8 277.2,62 297.3,62 326.8,62 347.7,62 347.7,43.8 328.7,43.8 297.3,43.8 		"/>
		<polygon class="st0" points="277.2,81.4 277.2,99.6 347.7,99.6 347.7,81.4 310.9,81.4 297.3,81.4 		"/>
	</g>
	<path class="st0" d="M37.6,55.6c0-18.6,0-36.9,0-55.5c22.9,0,45.8,0,69,0c0,7.3,0,14.7,0,22.7c-14.9,0-29.9,0-45.1,0
		c0,3.5,0,6.4,0,9.7c14.9,0,29.8,0,45,0c0,7.9,0,15.4,0,23.1C83.6,55.6,60.9,55.6,37.6,55.6z M44.3,49.3c18.8,0,37.3,0,55.9,0
		c0-3.6,0-6.8,0-10.5c-15.2,0-30.1,0-45,0c0-7.5,0-14.6,0-22.3c15.2,0,30.2,0,45.1,0c0-3.8,0-6.9,0-10.1c-18.8,0-37.3,0-55.9,0
		C44.3,20.8,44.3,35,44.3,49.3z M18.8,105.8c0-7.8,0-15.2,0-23c13.1,0,26,0,39.2,0c0-3.7,0-7,0-10.7c-12.9,0-25.8,0-39,0
		c0-24.2,0-47.9,0-72c1.7,0,3.4,0,5.8,0c0,21.6,0,43.3,0,65.5c13.5,0,26.4,0,39.6,0c0,13.6,0,26.7,0,40.2
		C49.2,105.8,34.3,105.8,18.8,105.8z M58.1,89.1c-11.3,0-22,0-32.9,0c0,3.5,0,6.8,0,10.1c11.1,0,22,0,32.9,0
		C58.1,95.7,58.1,92.5,58.1,89.1z M77.1,65.7c13.2,0,26,0,39.4,0c0-22,0-43.7,0-65.7c2.3,0,4.1,0,6.1,0c0,23.8,0,47.9,0,72
		c-12.9,0-25.8,0-39,0c0,3.7,0,7,0,10.7c12.8,0,25.7,0,39,0c0,7.9,0,15.1,0,23c-15.1,0-30.2,0-45.5,0C77.1,92.4,77.1,79.4,77.1,65.7
		z M116.3,99.3c0-3.6,0-6.8,0-10.1c-11.2,0-22,0-32.9,0c0,3.5,0,6.7,0,10.1C94.4,99.3,105.2,99.3,116.3,99.3z"/>
</g>
</svg>
