<?xml version="1.0" encoding="UTF-8"?>
<svg width="1312px" height="106px" viewBox="0 0 1312 106" version="1.1" xmlns="http://www.w3.org/2000/svg" xmlns:xlink="http://www.w3.org/1999/xlink">
    <!-- Generator: Sketch 52.5 (67469) - http://www.bohemiancoding.com/sketch -->
    <title>logo-dark</title>
    <desc>Created with Sketch.</desc>
    <g id="Page-1" stroke="none" stroke-width="1" fill="none" fill-rule="evenodd">
        <g id="logo-dark" fill="#353535">
            <path d="M713.9,89.5 C711.4,91.4 708.6,93.1 705.8,94.5 C702.9,95.9 699.8,97 696.4,97.7 C693,98.5 689.4,98.9 685.4,98.9 C678.9,98.9 672.9,97.7 667.4,95.3 C661.9,92.9 657.1,89.6 653.1,85.4 C649.1,81.2 646,76.3 643.7,70.6 C641.5,64.9 640.3,58.8 640.3,52.4 L640.3,52.1 C640.3,45.7 641.4,39.7 643.7,34 C646,28.3 649.1,23.3 653.1,19.1 C657.1,14.8 661.9,11.5 667.4,9 C672.9,6.5 678.9,5.3 685.5,5.3 C689.6,5.3 693.2,5.6 696.5,6.3 C699.8,7 702.8,8 705.6,9.3 C708.4,10.6 711,12.1 713.5,13.9 C716,15.7 718.3,17.6 720.7,19.8 L715.9,24.7 C713.9,22.8 711.8,21 709.7,19.4 C707.5,17.8 705.2,16.4 702.8,15.2 C700.3,14 697.7,13.1 694.8,12.4 C691.9,11.7 688.8,11.4 685.4,11.4 C680,11.4 674.9,12.4 670.3,14.5 C665.6,16.6 661.6,19.4 658.2,23.1 C654.8,26.8 652.1,31 650.2,36 C648.3,40.9 647.3,46.2 647.3,51.9 L647.3,52.2 C647.3,57.9 648.3,63.2 650.3,68.2 C652.3,73.2 655,77.5 658.4,81.1 C661.8,84.8 665.8,87.7 670.5,89.8 C675.2,91.9 680.2,93 685.6,93 C692.1,93 697.8,91.8 702.7,89.4 C707.5,87 712.2,83.5 716.8,78.9 L721.3,83.3 C718.9,85.4 716.4,87.5 713.9,89.5 Z" id="Path"></path>
            <path d="M816.3,76 C814.5,81 811.9,85.1 808.7,88.5 C805.4,91.9 801.5,94.4 797,96.1 C792.5,97.8 787.5,98.7 781.9,98.7 C776.5,98.7 771.5,97.9 767,96.2 C762.5,94.5 758.6,92 755.2,88.7 C751.9,85.4 749.3,81.3 747.5,76.5 C745.7,71.7 744.8,66.1 744.8,59.7 L744.8,6.8 L751.5,6.8 L751.5,59 C751.5,69.8 754.2,78.1 759.6,83.9 C765,89.7 772.5,92.6 782.2,92.6 C786.8,92.6 790.9,91.9 794.6,90.5 C798.3,89.1 801.5,87.1 804.1,84.3 C806.7,81.5 808.8,78.1 810.2,74 C811.6,69.9 812.3,65.1 812.3,59.7 L812.3,6.8 L819,6.8 L819,58.9 C819.1,65.4 818.2,71.1 816.3,76 Z" id="Path"></path>
            <path d="M909.4,83.9 C907.9,87 905.8,89.6 903.2,91.7 C900.6,93.9 897.4,95.5 893.8,96.7 C890.1,97.9 886.1,98.5 881.7,98.5 C874.5,98.5 867.9,97.3 862.1,94.9 C856.3,92.5 850.7,88.9 845.2,84 L849.6,79 C852.1,81.3 854.6,83.3 857,85 C859.5,86.7 862,88.1 864.6,89.1 C867.2,90.2 869.9,91 872.7,91.6 C875.5,92.2 878.6,92.4 882,92.4 C885.4,92.4 888.5,91.9 891.3,91 C894.1,90.1 896.6,88.8 898.5,87.3 C900.5,85.7 902,83.8 903.2,81.6 C904.3,79.4 904.9,77 904.9,74.4 L904.9,74.1 C904.9,71.7 904.5,69.5 903.8,67.6 C903.1,65.7 901.7,64 899.8,62.4 C897.9,60.8 895.3,59.4 892,58.2 C888.7,57 884.5,55.8 879.3,54.8 C873.9,53.7 869.2,52.4 865.3,50.9 C861.4,49.4 858.3,47.6 855.8,45.6 C853.3,43.6 851.6,41.2 850.4,38.6 C849.3,35.9 848.7,32.9 848.7,29.4 L848.7,29.1 C848.7,25.7 849.4,22.6 850.9,19.7 C852.4,16.8 854.4,14.3 857,12.1 C859.6,9.9 862.6,8.3 866.2,7.1 C869.7,5.9 873.6,5.3 877.8,5.3 C884.3,5.3 890,6.2 894.8,8 C899.6,9.8 904.3,12.6 908.8,16.3 L904.5,21.6 C900.2,17.9 895.9,15.3 891.5,13.7 C887.1,12.1 882.5,11.4 877.5,11.4 C874.1,11.4 871.1,11.9 868.4,12.8 C865.7,13.7 863.4,14.9 861.4,16.5 C859.5,18.1 858,19.9 856.9,21.9 C855.9,24 855.3,26.2 855.3,28.5 L855.3,28.8 C855.3,31.2 855.7,33.4 856.4,35.3 C857.1,37.2 858.5,39 860.4,40.6 C862.3,42.2 865,43.6 868.5,44.9 C871.9,46.2 876.3,47.4 881.7,48.5 C892.2,50.7 899.8,53.7 904.5,57.6 C909.2,61.5 911.5,66.8 911.5,73.4 L911.5,73.7 C911.6,77.5 910.9,80.9 909.4,83.9 Z" id="Path"></path>
            <polygon id="Path" points="970 12.9 970 97.3 963.3 97.3 963.3 12.9 931.8 12.9 931.8 6.8 1001.6 6.8 1001.6 12.9"></polygon>
            <path d="M1105.1,69.8 C1102.9,75.4 1099.8,80.4 1095.9,84.7 C1091.9,89 1087.1,92.4 1081.5,95 C1075.9,97.5 1069.6,98.8 1062.8,98.8 C1055.9,98.8 1049.7,97.5 1044.1,95 C1038.5,92.5 1033.8,89.1 1029.8,84.8 C1025.8,80.5 1022.8,75.6 1020.6,70 C1018.4,64.4 1017.4,58.5 1017.4,52.3 L1017.4,52 C1017.4,45.8 1018.5,39.9 1020.7,34.2 C1022.9,28.6 1026,23.6 1029.9,19.3 C1033.9,15 1038.6,11.6 1044.2,9 C1049.8,6.5 1056,5.2 1062.9,5.2 C1069.7,5.2 1075.9,6.5 1081.5,9 C1087.1,11.5 1091.9,14.9 1095.8,19.2 C1099.8,23.5 1102.8,28.4 1105,34 C1107.2,39.6 1108.2,45.5 1108.2,51.7 C1108.3,51.8 1108.3,51.9 1108.2,52 C1108.4,58.3 1107.3,64.2 1105.1,69.8 Z M1101.4,52.1 C1101.4,46.5 1100.4,41.2 1098.5,36.3 C1096.6,31.3 1093.9,27 1090.5,23.4 C1087.1,19.7 1083,16.8 1078.3,14.7 C1073.6,12.5 1068.4,11.5 1062.8,11.5 C1057.2,11.5 1052,12.6 1047.4,14.7 C1042.7,16.8 1038.7,19.7 1035.2,23.4 C1031.8,27.1 1029.1,31.4 1027.2,36.3 C1025.3,41.2 1024.4,46.5 1024.4,52.1 L1024.4,52.4 C1024.4,58 1025.4,63.3 1027.3,68.2 C1029.2,73.2 1031.9,77.5 1035.3,81.1 C1038.7,84.8 1042.8,87.7 1047.5,89.8 C1052.2,92 1057.4,93 1063,93 C1068.6,93 1073.7,91.9 1078.4,89.8 C1083.1,87.7 1087.1,84.8 1090.6,81.1 C1094,77.4 1096.7,73.1 1098.6,68.2 C1100.5,63.3 1101.4,58 1101.4,52.4 L1101.4,52.1 Z" id="Shape" fill-rule="nonzero"></path>
            <path d="M1212.4,69.9 C1210.1,75.4 1206.8,80.2 1202.5,84.2 C1198.2,88.3 1193.1,91.4 1187.2,93.8 C1181.3,96.1 1174.8,97.3 1167.7,97.3 L1137.6,97.3 L1137.6,6.8 L1167.7,6.8 C1174.8,6.8 1181.3,7.9 1187.2,10.2 C1193.1,12.5 1198.2,15.7 1202.5,19.7 C1206.8,23.8 1210.1,28.5 1212.4,34 C1214.7,39.5 1215.9,45.4 1215.9,51.8 L1215.9,52.1 C1215.9,58.4 1214.8,64.4 1212.4,69.9 Z M1208.9,52.1 C1208.9,46.7 1207.9,41.7 1206,36.9 C1204.1,32.1 1201.3,28 1197.8,24.4 C1194.3,20.9 1190,18 1184.9,16 C1179.8,13.9 1174.1,12.9 1167.8,12.9 L1144.4,12.9 L1144.4,91.2 L1167.8,91.2 C1174.1,91.2 1179.8,90.2 1184.9,88.2 C1190,86.2 1194.3,83.4 1197.8,79.9 C1201.3,76.4 1204.1,72.3 1206,67.6 C1207.9,62.9 1208.9,57.8 1208.9,52.4 L1208.9,52.1 Z" id="Shape" fill-rule="nonzero"></path>
            <polygon id="Path" points="1273.1 61.4 1273.1 97.3 1266.4 97.3 1266.4 61.5 1227.6 6.8 1236 6.8 1269.9 55.4 1303.9 6.8 1311.9 6.8"></polygon>
            <path d="M211.6,99.6 L203.1,78.8 L163.9,78.8 L155.4,99.6 L134.6,99.6 L174.4,6.2 L193.2,6.2 L233,99.6 L211.6,99.6 Z M183.5,30.7 L171.2,60.8 L195.8,60.8 L183.5,30.7 Z" id="Shape" fill-rule="nonzero"></path>
            <path d="M427.2,96.9 C420.6,99.8 413.1,101.2 404.6,101.2 C397.4,101.2 390.8,100 384.8,97.6 C378.8,95.2 373.7,91.9 369.4,87.7 C365.1,83.5 361.8,78.4 359.4,72.6 C357,66.8 355.8,60.4 355.8,53.5 L355.8,53.2 C355.8,46.6 357,40.4 359.4,34.6 C361.8,28.8 365.2,23.7 369.5,19.4 C373.9,15 379,11.5 385,9 C390.9,6.5 397.4,5.2 404.5,5.2 C408.7,5.2 412.4,5.5 415.8,6.1 C419.2,6.7 422.4,7.5 425.3,8.6 C428.2,9.7 431,11 433.5,12.6 C436.1,14.2 438.5,16 440.9,18 L428,33.5 C426.2,32 424.5,30.7 422.7,29.5 C420.9,28.4 419.1,27.4 417.2,26.6 C415.3,25.8 413.2,25.2 411,24.7 C408.8,24.3 406.4,24 403.7,24 C400,24 396.5,24.8 393.3,26.3 C390.1,27.8 387.2,29.9 384.8,32.5 C382.4,35.1 380.5,38.2 379.1,41.7 C377.7,45.2 377,48.9 377,52.9 L377,53.2 C377,57.5 377.7,61.4 379.1,65 C380.5,68.6 382.4,71.7 384.9,74.4 C387.4,77.1 390.4,79.1 393.8,80.6 C397.2,82.1 401,82.8 405.1,82.8 C412.7,82.8 419.1,80.9 424.3,77.2 L424.3,63.8 L403.8,63.8 L403.8,46.2 L444.1,46.2 L444.1,86.5 C439.4,90.5 433.7,94 427.2,96.9 Z" id="Path"></path>
            <polygon id="Path" points="476.7 99.6 476.7 6.8 497.1 6.8 497.1 99.6"></polygon>
            <path d="M596.7,84.4 C595,88 592.7,91 589.7,93.4 C586.7,95.8 583.2,97.7 579,99 C574.9,100.3 570.3,100.9 565.2,100.9 C558.1,100.9 551.2,99.7 544.4,97.3 C537.6,94.9 531.4,91.1 525.8,86.1 L538,71.6 C542.2,75 546.6,77.8 551.1,79.8 C555.6,81.8 560.4,82.8 565.7,82.8 C569.9,82.8 573.2,82 575.6,80.5 C577.9,79 579.1,76.8 579.1,74.1 L579.1,73.8 C579.1,72.5 578.9,71.3 578.4,70.3 C577.9,69.3 577,68.3 575.6,67.5 C574.2,66.6 572.3,65.7 569.9,64.8 C567.5,63.9 564.3,63 560.4,62 C555.7,60.9 551.5,59.6 547.6,58.2 C543.8,56.8 540.6,55 537.9,53 C535.2,50.9 533.2,48.3 531.7,45.2 C530.2,42.1 529.5,38.3 529.5,33.7 L529.5,33.4 C529.5,29.2 530.3,25.3 531.9,21.9 C533.5,18.5 535.7,15.6 538.5,13.1 C541.4,10.6 544.8,8.7 548.7,7.4 C552.7,6.1 557,5.4 561.8,5.4 C568.6,5.4 574.9,6.4 580.6,8.4 C586.3,10.4 591.5,13.3 596.3,17.1 L585.7,32.5 C581.5,29.7 577.5,27.4 573.5,25.8 C569.5,24.2 565.5,23.3 561.6,23.3 C557.6,23.3 554.6,24.1 552.7,25.6 C550.7,27.1 549.7,29.1 549.7,31.4 L549.7,31.7 C549.7,33.2 550,34.5 550.6,35.6 C551.2,36.7 552.2,37.7 553.7,38.6 C555.2,39.5 557.3,40.3 559.9,41.1 C562.5,41.9 565.8,42.8 569.8,43.9 C574.5,45.1 578.7,46.5 582.4,48.1 C586.1,49.6 589.2,51.5 591.7,53.7 C594.2,55.9 596.1,58.4 597.4,61.3 C598.7,64.2 599.3,67.7 599.3,71.8 L599.3,72.1 C599.2,76.8 598.4,80.9 596.7,84.4 Z" id="Path"></path>
            <polygon id="Path" points="294.5 25 329.7 25 329.7 6.8 259.2 6.8 259.2 25 279.3 25"></polygon>
            <polygon id="Path" points="259.2 43.8 259.2 62 279.3 62 308.8 62 329.7 62 329.7 43.8 310.7 43.8 279.3 43.8"></polygon>
            <polygon id="Path" points="259.2 81.4 259.2 99.6 329.7 99.6 329.7 81.4 292.9 81.4 279.3 81.4"></polygon>
            <path d="M19.6,55.6 C19.6,37 19.6,18.7 19.6,0.1 L88.6,0.1 L88.6,22.8 C73.7,22.8 58.7,22.8 43.5,22.8 L43.5,32.5 L88.5,32.5 L88.5,55.6 C65.6,55.6 42.9,55.6 19.6,55.6 Z M26.3,49.3 L82.2,49.3 C82.2,45.7 82.2,42.5 82.2,38.8 C67,38.8 52.1,38.8 37.2,38.8 C37.2,31.3 37.2,24.2 37.2,16.5 L82.3,16.5 C82.3,12.7 82.3,9.6 82.3,6.4 C63.5,6.4 45,6.4 26.4,6.4 C26.3,20.8 26.3,35 26.3,49.3 Z M0.8,105.8 C0.8,98 0.8,90.6 0.8,82.8 L40,82.8 C40,79.1 40,75.8 40,72.1 C27.1,72.1 14.2,72.1 1,72.1 C1,47.9 1,24.2 1,0.1 L6.8,0.1 L6.8,65.6 L46.4,65.6 L46.4,105.8 C31.2,105.8 16.3,105.8 0.8,105.8 Z M40.1,89.1 C28.8,89.1 18.1,89.1 7.2,89.1 L7.2,99.2 L40.1,99.2 C40.1,95.7 40.1,92.5 40.1,89.1 Z M59.1,65.7 L98.5,65.7 C98.5,43.7 98.5,22 98.5,1.42108547e-14 L104.6,1.42108547e-14 L104.6,72 C91.7,72 78.8,72 65.6,72 L65.6,82.7 L104.6,82.7 L104.6,105.7 C89.5,105.7 74.4,105.7 59.1,105.7 C59.1,92.4 59.1,79.4 59.1,65.7 Z M98.3,99.3 C98.3,95.7 98.3,92.5 98.3,89.2 C87.1,89.2 76.3,89.2 65.4,89.2 L65.4,99.3 L98.3,99.3 Z" id="Shape" fill-rule="nonzero"></path>
        </g>
    </g>
</svg>